<svg width="100" height="94" viewBox="0 0 100 94" fill="none" xmlns="http://www.w3.org/2000/svg">
<path d="M96.9066 79.1198H94.4777V35.1224C97.8755 31.9187 100 27.3788 100 22.3515C100 12.6705 92.1239 4.79437 82.4428 4.79437C78.3446 4.79437 74.356 6.23677 71.2117 8.8559C70.5896 9.37417 70.5054 10.2989 71.0237 10.921C71.5419 11.5431 72.4665 11.6273 73.0887 11.109C75.7071 8.92804 79.029 7.72668 82.4428 7.72668C90.5069 7.72668 97.0675 14.2873 97.0675 22.3513C97.0675 30.4153 90.5069 36.9759 82.4428 36.9759C74.3788 36.9759 67.8182 30.4153 67.8182 22.3513C67.8182 20.1251 68.305 17.9885 69.2651 16.0005C69.6172 15.2713 69.3115 14.3946 68.5824 14.0423C67.8524 13.6897 66.9766 13.9958 66.6243 14.725C65.4706 17.1142 64.8855 19.68 64.8855 22.3513C64.8855 22.7001 64.8969 23.0461 64.917 23.39H56.1869V5.03444C56.1869 2.74415 54.3236 0.881031 52.0333 0.881031H26.1365C23.8462 0.881031 21.9829 2.74415 21.9829 5.03444V23.39H9.55842C7.33851 23.39 5.53228 25.196 5.53228 27.4161V62.0047C5.53228 62.8147 6.18877 63.471 6.99854 63.471C7.8083 63.471 8.46479 62.8147 8.46479 62.0047V27.4161C8.46479 26.8132 8.9553 26.3225 9.55842 26.3225H21.9831V30.6284H15.8803C13.7783 30.6284 12.0681 32.3387 12.0681 34.4407V71.0077C12.0681 73.1097 13.7783 74.82 15.8803 74.82H84.1298C86.2318 74.82 87.9421 73.1097 87.9421 71.0077V39.0256C89.213 38.6052 90.4206 38.0445 91.5454 37.3599V79.1198H8.46479V68.7739C8.46479 67.964 7.8083 67.3077 6.99854 67.3077C6.18877 67.3077 5.53228 67.964 5.53228 68.7739V79.1198H3.06447C1.37476 79.1198 0 80.4946 0 82.1843V86.6804C0 90.2305 2.88813 93.1189 6.43843 93.1189H93.5328C97.0829 93.1189 99.9713 90.2307 99.9713 86.6804V82.1843C99.9711 80.4946 98.5965 79.1198 96.9066 79.1198ZM56.1869 26.3225H65.3389C65.6918 27.8425 66.2431 29.2873 66.9633 30.6284H56.1869V26.3225ZM45.883 3.81354L45.4488 5.73082C45.4267 5.82876 45.3411 5.89719 45.2408 5.89719H32.929C32.8287 5.89719 32.743 5.82876 32.721 5.73082L32.2868 3.81354H45.883ZM24.9154 5.03444C24.9154 4.36134 25.4632 3.81354 26.1365 3.81354H29.2798L29.8606 6.37832C30.1873 7.8215 31.449 8.8295 32.9288 8.8295H45.2406C46.7202 8.8295 47.9819 7.8217 48.3088 6.37832L48.8897 3.81354H52.0331C52.7064 3.81354 53.2542 4.36134 53.2542 5.03444V44.4339H24.9154V5.03444ZM24.9154 47.3666H53.2544V52.2584C53.2544 52.9315 52.7066 53.4793 52.0333 53.4793H26.1365C25.4632 53.4793 24.9154 52.9315 24.9154 52.2584V47.3666ZM85.0096 71.0077C85.0096 71.4928 84.6149 71.8875 84.1298 71.8875H15.8803C15.3953 71.8875 15.0006 71.4928 15.0006 71.0077V34.4407C15.0006 33.9556 15.3953 33.5609 15.8803 33.5609H21.9829V52.2584C21.9829 54.5487 23.8462 56.4118 26.1365 56.4118H52.0333C54.3236 56.4118 56.1869 54.5487 56.1869 52.2584V33.5609H68.9408C72.1638 37.4365 77.0201 39.9084 82.4428 39.9084C83.3146 39.9084 84.1713 39.8435 85.0094 39.7204V71.0077H85.0096ZM45.1501 82.0586H54.8211V84.3332H45.1501V82.0586ZM97.0386 86.6804C97.0386 88.6135 95.4657 90.1863 93.5326 90.1863H6.43843C4.50531 90.1863 2.93251 88.6135 2.93251 86.6804V82.1843C2.93251 82.1114 2.99175 82.0522 3.06447 82.0522L42.2176 82.0584V84.5602C42.2176 86.0519 43.4313 87.2656 44.9227 87.2656H55.0481C56.5398 87.2656 57.7535 86.0519 57.7535 84.5602V82.0584L96.9066 82.0522C96.9793 82.0522 97.0386 82.1114 97.0386 82.1843V86.6804Z" fill="#4891FF"/>
<path d="M77.7285 30.5559C78.3076 31.1348 79.0679 31.4241 79.8284 31.4241C80.5889 31.4241 81.3494 31.1348 81.9281 30.5559L92.0092 20.4753C93.653 18.8313 93.653 16.1563 92.009 14.5121C90.3653 12.8683 87.6898 12.8685 86.0461 14.5121C86.0461 14.5121 86.0461 14.5121 86.0459 14.5121L79.8288 20.7298L78.8395 19.7408C78.0433 18.9443 76.9844 18.5056 75.858 18.5056C74.7317 18.5056 73.6729 18.9443 72.8766 19.7406C72.0801 20.5369 71.6416 21.5957 71.6416 22.7222C71.6416 23.8484 72.0801 24.9073 72.8764 25.7037L77.7285 30.5559ZM74.9501 21.8143C75.1925 21.5716 75.5151 21.4379 75.858 21.4379C76.2011 21.4379 76.5233 21.5716 76.7661 21.8143L78.6798 23.728C79.3132 24.3614 80.3443 24.3614 80.9777 23.728L88.1198 16.5858C88.6208 16.0851 89.4353 16.0853 89.9358 16.5856C90.4364 17.0865 90.4364 17.9011 89.936 18.4016L79.8548 28.4822C79.8407 28.4967 79.8167 28.4967 79.8024 28.4822L74.9503 23.6301C74.7076 23.3876 74.5741 23.0651 74.5741 22.7222C74.5741 22.3791 74.7074 22.0569 74.9501 21.8143Z" fill="#4891FF"/>
<path d="M31.6262 29.3436C32.8563 29.1442 33.6919 27.9853 33.4925 26.7552C33.2931 25.5251 32.1342 24.6895 30.9041 24.8889C29.674 25.0883 28.8384 26.2472 29.0378 27.4773C29.2372 28.7074 30.3961 29.543 31.6262 29.3436Z" fill="#4891FF"/>
<path d="M41.186 27.9821C41.6633 26.8305 41.1167 25.51 39.9651 25.0327C38.8135 24.5553 37.493 25.1019 37.0157 26.2535C36.5383 27.4051 37.0849 28.7256 38.2365 29.203C39.3881 29.6803 40.7086 29.1337 41.186 27.9821Z" fill="#4891FF"/>
<path d="M46.8966 29.3698C48.1429 29.3698 49.1532 28.3594 49.1532 27.1131C49.1532 25.8668 48.1429 24.8564 46.8966 24.8564C45.6502 24.8564 44.6399 25.8668 44.6399 27.1131C44.6399 28.3594 45.6502 29.3698 46.8966 29.3698Z" fill="#4891FF"/>
</svg>
