<svg width="90" height="100" viewBox="0 0 90 100" fill="none" xmlns="http://www.w3.org/2000/svg">
<path d="M33.9979 85.2793C33.6831 84.5114 32.8815 84.0188 32.0548 84.0786C31.2315 84.1381 30.5233 84.7241 30.3085 85.5204C30.0999 86.2934 30.4019 87.1477 31.0562 87.6123C31.7343 88.0938 32.6521 88.0936 33.3302 87.6123C34.0589 87.0952 34.3413 86.1034 33.9979 85.2793Z" fill="#4891FF"/>
<path d="M87.1844 0H53.995C53.9705 0 53.9463 0.000585938 53.9223 0.0015625C53.868 0.000585938 53.8135 0 53.759 0H10.5575C5.21157 0 0.862549 4.34922 0.862549 9.69492V90.3051C0.862549 95.651 5.21177 100 10.5577 100H53.759C59.1047 100 63.4539 95.6508 63.4539 90.3051V36.4355L68.8678 32.4389H87.1846C88.2631 32.4389 89.1377 31.5645 89.1377 30.4857V1.95312C89.1375 0.874414 88.2631 0 87.1844 0V0ZM4.7688 9.69492C4.7688 6.50293 7.36567 3.90625 10.5575 3.90625H52.0416V10.0684H4.7688V9.69492ZM53.759 96.0938H10.5575C7.36548 96.0938 4.7686 93.4971 4.7686 90.3051V87.9785H23.3288C24.4073 87.9785 25.2819 87.1041 25.2819 86.0254C25.2819 84.9467 24.4073 84.0723 23.3288 84.0723H4.7688V13.9746H52.0418V30.4857C52.0418 31.5645 52.9164 32.4389 53.995 32.4389H59.0877L59.5553 35.2287C59.5502 35.2859 59.5475 35.3438 59.5475 35.4023V84.0723H40.9875C39.909 84.0723 39.0344 84.9467 39.0344 86.0254C39.0344 87.1041 39.909 87.9785 40.9875 87.9785H59.5475V90.3051C59.5475 93.4971 56.9508 96.0938 53.759 96.0938ZM85.2313 28.5326H68.2248C67.8073 28.5326 67.4008 28.6664 67.0649 28.9145L62.9651 31.9412L62.667 30.1631C62.5092 29.2223 61.6948 28.5328 60.7409 28.5328H55.9483V3.90625H85.2317V28.5326H85.2313Z" fill="#4891FF"/>
<path d="M65.8701 24.3115C66.5053 24.6631 67.2072 24.8377 67.9084 24.8377C68.6857 24.8377 69.4621 24.6227 70.1441 24.1953L77.0066 19.8941C78.2426 19.1195 78.9805 17.7861 78.9805 16.3275C78.9805 14.8689 78.2426 13.5356 77.0066 12.7609L70.1441 8.45977C68.8471 7.64707 67.2098 7.60235 65.8701 8.34375C64.5311 9.08477 63.6992 10.4961 63.6992 12.0266V20.6287C63.6992 22.1592 64.5311 23.5705 65.8701 24.3115ZM67.6055 12.0266C67.6055 11.9824 67.6055 11.8479 67.7619 11.7613C67.8176 11.7305 67.8682 11.7197 67.9117 11.7197C67.99 11.7197 68.0459 11.7547 68.0699 11.7697L74.9324 16.0709C75.0265 16.1301 75.0746 16.2164 75.0746 16.3277C75.0746 16.4391 75.0267 16.5254 74.9324 16.5846L68.0699 20.8856C68.0326 20.909 67.9185 20.9807 67.7621 20.894C67.6057 20.8074 67.6057 20.6729 67.6057 20.6287V12.0266H67.6055Z" fill="#4891FF"/>
<path d="M49.0527 63.7828V60.5387C49.0777 60.5391 49.0917 60.5391 49.0933 60.5391C50.7687 60.5391 52.371 59.823 53.49 58.5748C54.6087 57.3268 55.1446 55.6498 54.9607 53.9736C54.7952 52.4666 54.0605 51.1322 52.9786 50.1865V43.0459C52.9786 40.1953 51.8433 36.0355 50.1532 32.6953C47.8888 28.2191 45.1032 25.8531 42.0976 25.8531C41.123 25.8531 40.2974 26.5719 40.1632 27.5373L40.02 28.5668C39.4327 28.7937 37.5476 29.2674 32.2761 29.081C28.6638 28.9535 25.331 28.5785 25.2978 28.5748C25.2247 28.5666 25.1511 28.5623 25.0775 28.5623C17.5411 28.5623 11.4099 34.6935 11.4099 42.2299V50.1865C10.3275 51.1326 9.59252 52.4678 9.42767 53.9756C9.24428 55.6514 9.7806 57.3281 10.8992 58.5758C12.0179 59.8236 13.6202 60.5394 15.2952 60.5394C15.2968 60.5394 15.3109 60.5394 15.3359 60.5391V63.7832C15.3359 66.0785 16.4562 69.4351 21.7935 72.3892C23.4552 73.309 25.1066 73.958 26.2365 74.3506V77.1406C26.2365 78.2193 27.1111 79.0937 28.1896 79.0937H36.1995C37.278 79.0937 38.1527 78.2193 38.1527 77.1406V74.3506C39.2825 73.958 40.9339 73.309 42.5956 72.3892C47.9323 69.4346 49.0527 66.0781 49.0527 63.7828ZM47.6378 56.5377C47.6489 56.5408 47.6591 56.5439 47.6685 56.5467C47.6583 56.5437 47.6482 56.5406 47.6378 56.5377ZM24.9738 32.4689C25.6906 32.5473 29.4329 32.9394 33.2837 33.0166C38.0343 33.1135 42.5134 32.835 43.6032 30.3672C44.6185 31.1246 45.7046 32.5549 46.6677 34.4588C48.0835 37.2574 49.0724 40.7885 49.0724 43.0459V47.3234C48.7581 47.0998 48.3749 46.9668 47.9609 46.9627C46.8128 46.8162 42.9849 43.5975 39.7544 40.0605C39.0984 39.3426 38.0142 39.2162 37.2113 39.7643C29.7199 44.8769 23.9468 46.9625 17.2853 46.9625H16.4474C16.0257 46.9625 15.6353 47.0961 15.3161 47.3234V42.2297C15.316 36.8818 19.6388 32.5246 24.9738 32.4689ZM16.7197 56.5469C16.729 56.5441 16.7392 56.541 16.7501 56.5379C16.74 56.5406 16.7298 56.5437 16.7197 56.5469ZM35.6923 71.0346C34.839 71.2639 34.246 72.0373 34.246 72.9207V75.1871H30.1423V72.9207C30.1423 72.0387 29.5493 71.2656 28.698 71.035C26.2447 70.3703 19.2417 67.6111 19.2417 63.7828V58.4152C19.2417 57.7965 18.9484 57.2142 18.4511 56.8459C17.9681 56.4881 17.3482 56.373 16.7706 56.532C16.5204 56.5785 15.6679 56.633 15.2947 56.633C14.7199 56.633 14.1915 56.3969 13.807 55.9682C13.4228 55.5396 13.2464 54.983 13.3101 54.4006C13.4111 53.4787 14.1859 52.7234 15.1126 52.6434C15.3759 52.6205 15.6331 52.6471 15.8781 52.7215C16.4704 52.9019 17.1124 52.7906 17.6095 52.4225C18.1068 52.0541 18.3999 51.4719 18.3999 50.8531V50.8498C26.4554 50.5734 32.805 47.3365 38.0288 43.9168C38.7368 44.6441 39.7095 45.6127 40.7786 46.5889C43.1808 48.7824 44.8142 49.8701 45.9876 50.3975V50.8529C45.9876 51.4717 46.2808 52.0539 46.778 52.4223C47.2753 52.7906 47.9177 52.9017 48.5095 52.7215C48.7544 52.6469 49.0114 52.6203 49.2749 52.6432C50.2013 52.7228 50.9761 53.4779 51.0775 54.3998C51.1413 54.9822 50.965 55.5391 50.5808 55.9676C50.1964 56.3965 49.6681 56.6328 49.0931 56.6328C48.72 56.6328 47.8675 56.5785 47.6171 56.5318C47.0394 56.3726 46.4193 56.4879 45.9366 56.8457C45.4394 57.2141 45.146 57.7963 45.146 58.415V63.7826C45.1464 67.6111 38.1435 70.3703 35.6923 71.0346Z" fill="#4891FF"/>
<path d="M28.0291 56.2656C28.0291 55.1869 27.1544 54.3125 26.0759 54.3125C24.9974 54.3125 24.1228 55.1869 24.1228 56.2656V56.7799C24.1228 57.8586 24.9974 58.733 26.0759 58.733C27.1544 58.733 28.0291 57.8586 28.0291 56.7799V56.2656Z" fill="#4891FF"/>
<path d="M38.312 54.3125C37.2335 54.3125 36.3589 55.1869 36.3589 56.2656V56.7799C36.3589 57.8586 37.2335 58.733 38.312 58.733C39.3905 58.733 40.2651 57.8586 40.2651 56.7799V56.2656C40.2651 55.1869 39.3905 54.3125 38.312 54.3125Z" fill="#4891FF"/>
<path d="M33.3745 63.0551C33.0591 63.3707 32.6398 63.5443 32.1939 63.5443C31.7481 63.5443 31.3288 63.3705 31.0134 63.0551C30.2507 62.2922 29.0142 62.2918 28.2513 63.0547C27.4884 63.8172 27.4882 65.0539 28.2507 65.8168C29.304 66.8705 30.7044 67.4508 32.1937 67.4508C33.6833 67.4508 35.0837 66.8705 36.1368 65.8168C36.8993 65.0539 36.8991 63.8172 36.1362 63.0547C35.3737 62.2918 34.1368 62.2924 33.3745 63.0551Z" fill="#4891FF"/>
</svg>
