<svg width="38" height="21" viewBox="0 0 38 21" fill="none" xmlns="http://www.w3.org/2000/svg">
<path opacity="0.4" d="M7.08 21L0.776 0.136H5.768L8.264 9.864C8.584 11.016 8.86133 12.136 9.096 13.224C9.352 14.2907 9.64 15.4 9.96 16.552H10.088C10.3867 15.4 10.664 14.2907 10.92 13.224C11.176 12.136 11.4533 11.016 11.752 9.864L14.216 0.136H19.016L12.744 21H7.08ZM21.2453 21V0.136H28.7653C29.8746 0.136 30.9093 0.242666 31.8693 0.455999C32.8506 0.669333 33.7039 1.032 34.4293 1.544C35.1546 2.03467 35.7306 2.696 36.1573 3.528C36.5839 4.36 36.7973 5.39467 36.7973 6.632C36.7973 8.168 36.4559 9.43733 35.7733 10.44C35.1119 11.4213 34.2159 12.1573 33.0853 12.648L37.8213 21H32.5413L28.5413 13.48H25.9493V21H21.2453ZM25.9493 9.736H28.3813C29.6186 9.736 30.5573 9.48 31.1973 8.968C31.8586 8.43467 32.1893 7.656 32.1893 6.632C32.1893 5.608 31.8586 4.89333 31.1973 4.488C30.5573 4.08267 29.6186 3.88 28.3813 3.88H25.9493V9.736Z" fill="white"/>
</svg>
