<svg width="114" height="26" viewBox="0 0 114 26" fill="none" xmlns="http://www.w3.org/2000/svg">
<path d="M7.08 21L0.776 0.136H5.768L8.264 9.864C8.584 11.016 8.86133 12.136 9.096 13.224C9.352 14.2907 9.64 15.4 9.96 16.552H10.088C10.3867 15.4 10.664 14.2907 10.92 13.224C11.176 12.136 11.4533 11.016 11.752 9.864L14.216 0.136H19.016L12.744 21H7.08ZM21.2453 21V0.136H28.7653C29.8746 0.136 30.9093 0.242666 31.8693 0.455999C32.8506 0.669333 33.7039 1.032 34.4293 1.544C35.1546 2.03467 35.7306 2.696 36.1573 3.528C36.5839 4.36 36.7973 5.39467 36.7973 6.632C36.7973 8.168 36.4559 9.43733 35.7733 10.44C35.1119 11.4213 34.2159 12.1573 33.0853 12.648L37.8213 21H32.5413L28.5413 13.48H25.9493V21H21.2453ZM25.9493 9.736H28.3813C29.6186 9.736 30.5573 9.48 31.1973 8.968C31.8586 8.43467 32.1893 7.656 32.1893 6.632C32.1893 5.608 31.8586 4.89333 31.1973 4.488C30.5573 4.08267 29.6186 3.88 28.3813 3.88H25.9493V9.736Z" fill="#4891FF"/>
<path d="M39.2063 16.4V15.62H43.6063V16.4H39.2063ZM48.2569 21.24C47.7902 21.24 47.4035 21.1667 47.0969 21.02C46.7902 20.8867 46.5435 20.6933 46.3569 20.44C46.1702 20.1867 46.0369 19.88 45.9569 19.52C45.8902 19.16 45.8569 18.7667 45.8569 18.34V12.16H44.3569V11.48L45.8769 11.4L45.9969 8.62H46.7569V11.4H49.5369V12.16H46.7569V18.42C46.7569 18.7267 46.7769 19.0067 46.8169 19.26C46.8702 19.5 46.9569 19.7133 47.0769 19.9C47.1969 20.0733 47.3569 20.2133 47.5569 20.32C47.7702 20.4133 48.0435 20.46 48.3769 20.46C48.5635 20.46 48.7635 20.4333 48.9769 20.38C49.2035 20.3133 49.4035 20.24 49.5769 20.16L49.8169 20.88C49.5369 20.9867 49.2569 21.0733 48.9769 21.14C48.6969 21.2067 48.4569 21.24 48.2569 21.24ZM51.8673 21V11.4H52.6273L52.7073 13.18H52.7673C53.0873 12.58 53.474 12.0933 53.9273 11.72C54.394 11.3467 54.914 11.16 55.4873 11.16C55.674 11.16 55.8407 11.1733 55.9873 11.2C56.134 11.2267 56.2873 11.28 56.4473 11.36L56.2473 12.16C56.0873 12.0933 55.9473 12.0533 55.8273 12.04C55.7073 12.0133 55.554 12 55.3673 12C54.9407 12 54.4873 12.1867 54.0073 12.56C53.5407 12.92 53.1207 13.5533 52.7473 14.46V21H51.8673ZM59.8853 21.24C59.4986 21.24 59.1386 21.1867 58.8053 21.08C58.472 20.9733 58.1786 20.8133 57.9253 20.6C57.672 20.3867 57.472 20.1133 57.3253 19.78C57.1786 19.4467 57.1053 19.0533 57.1053 18.6C57.1053 17.5333 57.5986 16.7267 58.5853 16.18C59.5853 15.62 61.1586 15.22 63.3053 14.98C63.3053 14.62 63.2786 14.26 63.2253 13.9C63.172 13.5267 63.0586 13.2 62.8853 12.92C62.712 12.6267 62.4786 12.3933 62.1853 12.22C61.892 12.0333 61.5053 11.94 61.0253 11.94C60.3853 11.94 59.7986 12.0667 59.2653 12.32C58.732 12.5733 58.2986 12.82 57.9653 13.06L57.5653 12.4C57.7386 12.28 57.9453 12.1467 58.1853 12C58.4386 11.8533 58.7186 11.72 59.0253 11.6C59.332 11.48 59.6653 11.38 60.0253 11.3C60.3853 11.2067 60.7586 11.16 61.1453 11.16C61.7053 11.16 62.1786 11.26 62.5653 11.46C62.952 11.6467 63.2653 11.9067 63.5053 12.24C63.7453 12.5733 63.9186 12.9667 64.0253 13.42C64.132 13.86 64.1853 14.34 64.1853 14.86V21H63.4253L63.3453 19.76H63.2853C62.792 20.1467 62.2586 20.4933 61.6853 20.8C61.1253 21.0933 60.5253 21.24 59.8853 21.24ZM60.0453 20.48C60.6053 20.48 61.1386 20.3467 61.6453 20.08C62.152 19.8133 62.7053 19.4267 63.3053 18.92V15.66C62.3186 15.78 61.4853 15.9267 60.8053 16.1C60.1253 16.2733 59.5786 16.48 59.1653 16.72C58.752 16.96 58.452 17.2333 58.2653 17.54C58.092 17.8467 58.0053 18.1867 58.0053 18.56C58.0053 18.9067 58.0586 19.2 58.1653 19.44C58.272 19.68 58.4186 19.88 58.6053 20.04C58.792 20.1867 59.0053 20.3 59.2453 20.38C59.4986 20.4467 59.7653 20.48 60.0453 20.48ZM69.6095 21L66.0095 11.4H66.9695L69.1295 17.42C69.2762 17.8867 69.4362 18.3533 69.6095 18.82C69.7829 19.2867 69.9429 19.74 70.0895 20.18H70.1695C70.3295 19.74 70.4895 19.2867 70.6495 18.82C70.8229 18.3533 70.9895 17.8867 71.1495 17.42L73.3095 11.4H74.2095L70.6495 21H69.6095ZM79.9214 21.24C79.3081 21.24 78.7281 21.1267 78.1814 20.9C77.6481 20.6733 77.1814 20.3467 76.7814 19.92C76.3814 19.48 76.0614 18.9533 75.8214 18.34C75.5947 17.7133 75.4814 17.0067 75.4814 16.22C75.4814 15.4333 75.5947 14.7267 75.8214 14.1C76.0614 13.4733 76.3747 12.9467 76.7614 12.52C77.1614 12.08 77.6081 11.7467 78.1014 11.52C78.6081 11.28 79.1281 11.16 79.6614 11.16C80.8081 11.16 81.7081 11.5467 82.3614 12.32C83.0147 13.0933 83.3414 14.1867 83.3414 15.6C83.3414 15.72 83.3414 15.84 83.3414 15.96C83.3414 16.08 83.3281 16.2 83.3014 16.32H76.3814C76.3947 16.92 76.4881 17.48 76.6614 18C76.8347 18.5067 77.0747 18.9467 77.3814 19.32C77.7014 19.68 78.0814 19.9667 78.5214 20.18C78.9614 20.38 79.4547 20.48 80.0014 20.48C80.5214 20.48 80.9881 20.4067 81.4014 20.26C81.8281 20.1 82.2214 19.8867 82.5814 19.62L82.9414 20.3C82.5547 20.5267 82.1281 20.74 81.6614 20.94C81.2081 21.14 80.6281 21.24 79.9214 21.24ZM76.3814 15.6H82.5014C82.5014 14.36 82.2481 13.44 81.7414 12.84C81.2347 12.2267 80.5481 11.92 79.6814 11.92C79.2681 11.92 78.8747 12.0067 78.5014 12.18C78.1281 12.34 77.7881 12.58 77.4814 12.9C77.1881 13.22 76.9414 13.6067 76.7414 14.06C76.5547 14.5133 76.4347 15.0267 76.3814 15.6ZM87.1294 21.24C86.3427 21.24 85.9494 20.7333 85.9494 19.72V6.62H86.8294V19.84C86.8294 20.0533 86.8694 20.2133 86.9494 20.32C87.0294 20.4133 87.1294 20.46 87.2494 20.46C87.2894 20.46 87.3294 20.46 87.3694 20.46C87.4227 20.46 87.5027 20.4467 87.6094 20.42L87.7694 21.14C87.676 21.1667 87.5827 21.1867 87.4894 21.2C87.396 21.2267 87.276 21.24 87.1294 21.24ZM90.6955 21V11.4H91.5755V21H90.6955ZM91.1555 9.08C90.9288 9.08 90.7355 9.00667 90.5755 8.86C90.4288 8.71333 90.3555 8.52667 90.3555 8.3C90.3555 8.04667 90.4288 7.85333 90.5755 7.72C90.7355 7.57333 90.9288 7.5 91.1555 7.5C91.3821 7.5 91.5688 7.57333 91.7155 7.72C91.8755 7.85333 91.9555 8.04667 91.9555 8.3C91.9555 8.52667 91.8755 8.71333 91.7155 8.86C91.5688 9.00667 91.3821 9.08 91.1555 9.08ZM95.2658 21V11.4H96.0258L96.1058 12.88H96.1658C96.6591 12.3867 97.1658 11.98 97.6858 11.66C98.2058 11.3267 98.7991 11.16 99.4658 11.16C100.466 11.16 101.199 11.46 101.666 12.06C102.132 12.66 102.366 13.5867 102.366 14.84V21H101.486V14.96C101.486 13.9333 101.312 13.18 100.966 12.7C100.632 12.2067 100.072 11.96 99.2858 11.96C98.7124 11.96 98.1924 12.1133 97.7258 12.42C97.2591 12.7133 96.7324 13.16 96.1458 13.76V21H95.2658ZM109.05 25.62C107.837 25.62 106.877 25.38 106.17 24.9C105.464 24.42 105.11 23.7733 105.11 22.96C105.11 22.5333 105.237 22.12 105.49 21.72C105.744 21.32 106.09 20.96 106.53 20.64V20.56C106.29 20.4133 106.09 20.2133 105.93 19.96C105.77 19.7067 105.69 19.3933 105.69 19.02C105.69 18.5933 105.81 18.2333 106.05 17.94C106.29 17.6333 106.517 17.4067 106.73 17.26V17.18C106.424 16.9133 106.144 16.5533 105.89 16.1C105.65 15.6467 105.53 15.1267 105.53 14.54C105.53 14.0467 105.617 13.5933 105.79 13.18C105.964 12.7667 106.204 12.4133 106.51 12.12C106.817 11.8133 107.177 11.58 107.59 11.42C108.004 11.2467 108.444 11.16 108.91 11.16C109.177 11.16 109.417 11.1867 109.63 11.24C109.844 11.28 110.024 11.3333 110.17 11.4H113.43V12.14H111.19C111.497 12.4067 111.75 12.7533 111.95 13.18C112.15 13.5933 112.25 14.0533 112.25 14.56C112.25 15.0533 112.164 15.5067 111.99 15.92C111.817 16.3333 111.577 16.6933 111.27 17C110.977 17.2933 110.624 17.5267 110.21 17.7C109.81 17.86 109.377 17.94 108.91 17.94C108.644 17.94 108.364 17.9067 108.07 17.84C107.79 17.7733 107.537 17.6733 107.31 17.54C107.097 17.7133 106.91 17.9067 106.75 18.12C106.604 18.3333 106.53 18.6 106.53 18.92C106.53 19.2667 106.657 19.5667 106.91 19.82C107.164 20.06 107.65 20.18 108.37 20.18H110.43C111.51 20.18 112.304 20.36 112.81 20.72C113.33 21.0667 113.59 21.62 113.59 22.38C113.59 22.7933 113.484 23.1933 113.27 23.58C113.057 23.98 112.75 24.3267 112.35 24.62C111.964 24.9267 111.49 25.1667 110.93 25.34C110.37 25.5267 109.744 25.62 109.05 25.62ZM108.91 17.24C109.244 17.24 109.557 17.18 109.85 17.06C110.157 16.9267 110.424 16.74 110.65 16.5C110.877 16.26 111.057 15.9733 111.19 15.64C111.324 15.3067 111.39 14.94 111.39 14.54C111.39 14.14 111.324 13.7733 111.19 13.44C111.057 13.1067 110.877 12.8267 110.65 12.6C110.437 12.3733 110.177 12.2 109.87 12.08C109.564 11.9467 109.244 11.88 108.91 11.88C108.564 11.88 108.237 11.9467 107.93 12.08C107.637 12.2 107.377 12.3733 107.15 12.6C106.924 12.8267 106.744 13.1067 106.61 13.44C106.477 13.76 106.41 14.1267 106.41 14.54C106.41 14.94 106.477 15.3067 106.61 15.64C106.744 15.9733 106.924 16.26 107.15 16.5C107.39 16.74 107.657 16.9267 107.95 17.06C108.257 17.18 108.577 17.24 108.91 17.24ZM109.15 24.9C109.684 24.9 110.17 24.8267 110.61 24.68C111.05 24.5467 111.424 24.3667 111.73 24.14C112.037 23.9133 112.27 23.6533 112.43 23.36C112.604 23.08 112.69 22.7867 112.69 22.48C112.69 21.9467 112.497 21.5667 112.11 21.34C111.737 21.1267 111.19 21.02 110.47 21.02H108.41C108.304 21.02 108.137 21.0133 107.91 21C107.697 20.9733 107.464 20.9267 107.21 20.86C106.77 21.1667 106.45 21.4933 106.25 21.84C106.05 22.1867 105.95 22.5333 105.95 22.88C105.95 23.48 106.224 23.9667 106.77 24.34C107.33 24.7133 108.124 24.9 109.15 24.9Z" fill="white"/>
</svg>
