<svg width="26" height="30" viewBox="0 0 26 30" fill="none" xmlns="http://www.w3.org/2000/svg">
<path fill-rule="evenodd" clip-rule="evenodd" d="M0.968628 12.0252C0.968628 5.39623 6.36485 0 12.9938 0C19.6227 0 25.0189 5.39623 25.0315 12.0252C25.0315 12.7799 24.956 13.5409 24.8177 14.283C24.8114 14.327 24.7862 14.4591 24.7359 14.6855C24.5535 15.5031 24.2831 16.2956 23.9309 17.0566C22.6353 20.1069 19.78 24.7925 13.5347 29.8113C13.3774 29.9371 13.1888 30 13.0001 30C12.8114 30 12.6227 29.9371 12.4655 29.8113C6.21391 24.7925 3.36485 20.1069 2.06926 17.0566C1.71706 16.2956 1.44662 15.4969 1.26423 14.6855C1.21391 14.4591 1.18875 14.327 1.18246 14.283C1.03781 13.5409 0.968628 12.7799 0.968628 12.0252ZM13 18C16.3137 18 19 15.3137 19 12C19 8.68629 16.3137 6 13 6C9.68629 6 7 8.68629 7 12C7 15.3137 9.68629 18 13 18Z" fill="#4891FF"/>
</svg>
