<svg width="21" height="12" viewBox="0 0 21 12" fill="none" xmlns="http://www.w3.org/2000/svg">
<path d="M20.1757 11.2825H17.2536C16.5231 11.3637 15.8738 11.039 15.3868 10.552C14.9809 10.1461 14.6562 9.74028 14.2504 9.25327C14.088 9.09093 13.9257 8.92859 13.6822 8.76625C13.2764 8.52275 12.9517 8.60392 12.7082 9.00976C12.4647 9.41561 12.4647 9.90262 12.3835 10.3896C12.3835 11.039 12.14 11.2825 11.4095 11.2825C9.94841 11.3637 8.56856 11.1202 7.26985 10.3896C6.13349 9.74028 5.24063 8.76626 4.42894 7.79223C2.96789 5.763 1.75036 3.49027 0.776331 1.21754C0.532823 0.730521 0.695142 0.405845 1.26332 0.405845C2.23735 0.405845 3.13021 0.405845 4.10424 0.405845C4.51009 0.405845 4.75359 0.649352 4.91593 0.974028C5.40295 2.27273 6.05232 3.4091 6.86401 4.54546C7.02635 4.78897 7.26985 5.11365 7.59452 5.35716C7.9192 5.60066 8.1627 5.51949 8.32504 5.11365C8.40621 4.87014 8.48739 4.62663 8.48739 4.38313C8.56856 3.49027 8.56855 2.59741 8.40621 1.78572C8.32505 1.21754 8.00036 0.892859 7.43218 0.81169C7.18867 0.730521 7.18866 0.649352 7.351 0.487014C7.59451 0.243507 7.83802 0 8.24387 0H11.4906C11.9776 0.081169 12.14 0.324676 12.2211 0.81169V4.4643C12.2211 4.62663 12.3023 5.27599 12.7082 5.43832C12.9517 5.51949 13.1952 5.27599 13.3575 5.11365C14.1692 4.30196 14.7374 3.24676 15.2244 2.27273C15.4679 1.78572 15.6303 1.37987 15.7926 0.892859C15.9549 0.568183 16.1984 0.405845 16.5231 0.405845H19.6887C19.7699 0.405845 19.851 0.405845 19.9322 0.405845C20.5004 0.487014 20.5816 0.730521 20.4192 1.21754C20.1757 2.02923 19.6887 2.67858 19.1205 3.4091C18.5523 4.13962 17.9841 4.87014 17.4971 5.60066C17.0913 6.25001 17.0913 6.65586 17.6595 7.22404C18.3088 7.8734 19.0393 8.44158 19.6075 9.1721C19.851 9.49678 20.0945 9.82145 20.338 10.2273C20.9062 10.6331 20.6627 11.2825 20.1757 11.2825Z" fill="#4891FF"/>
</svg>
