<svg width="21" height="16" viewBox="0 0 21 16" fill="none" xmlns="http://www.w3.org/2000/svg">
<path d="M20.4763 3.33333C20.4763 3.33333 20.2858 1.80953 19.7144 1.14286C18.9525 0.285715 18.0953 0.285714 17.7144 0.285714C14.8572 0.0952374 10.6667 0 10.6667 0C10.6667 0 9.61912 -1.45464e-06 8.19055 0.0952367C6.76198 0.0952367 5.04771 0.190476 3.61913 0.285714C3.23818 0.285714 2.38103 0.380953 1.61913 1.14286C1.0477 1.80953 0.857236 3.33333 0.857236 3.33333C0.857236 3.33333 0.666748 5.14286 0.666748 6.85715V8.47619C0.666748 10.1905 0.857236 12 0.857236 12C0.857236 12 1.0477 13.5238 1.61913 14.1905C2.38103 15.0476 3.42864 15.0476 3.80959 15.1429C5.42864 15.2381 10.6667 15.2381 10.6667 15.2381C10.6667 15.2381 14.8572 15.2381 17.7144 14.9524C18.0953 14.9524 18.9525 14.8571 19.7144 14.0952C20.2858 13.4286 20.4763 11.9048 20.4763 11.9048C20.4763 11.9048 20.6667 10.1905 20.6667 8.38095V6.76191C20.6667 5.04762 20.4763 3.33333 20.4763 3.33333ZM8.2858 11.6191V4.09524L14.8572 7.90476L8.2858 11.6191Z" fill="#4891FF"/>
</svg>
